<mxfile host="app.diagrams.net" agent="Mozilla/5.0 (Windows NT 10.0; Win64; x64; rv:133.0) Gecko/20100101 Firefox/133.0" version="26.0.1">
  <diagram name="Page-1" id="LtfT5vIZs8PKoVPFplej">
    <mxGraphModel dx="1728" dy="960" grid="1" gridSize="10" guides="1" tooltips="1" connect="1" arrows="1" fold="1" page="1" pageScale="1" pageWidth="827" pageHeight="1169" math="0" shadow="0">
      <root>
        <mxCell id="0" />
        <mxCell id="1" parent="0" />
        <mxCell id="aq7eUv8yj4ew99GdYOny-23" value="" style="rounded=1;whiteSpace=wrap;html=1;" parent="1" vertex="1">
          <mxGeometry x="160" y="240" width="570" height="320" as="geometry" />
        </mxCell>
        <mxCell id="aq7eUv8yj4ew99GdYOny-2" value="User" style="shape=umlActor;verticalLabelPosition=bottom;verticalAlign=top;html=1;outlineConnect=0;" parent="1" vertex="1">
          <mxGeometry x="40" y="360" width="40" height="80" as="geometry" />
        </mxCell>
        <mxCell id="aq7eUv8yj4ew99GdYOny-4" value="" style="endArrow=classic;html=1;rounded=0;startArrow=open;startFill=0;" parent="1" edge="1">
          <mxGeometry width="50" height="50" relative="1" as="geometry">
            <mxPoint x="100" y="399.5" as="sourcePoint" />
            <mxPoint x="220" y="400" as="targetPoint" />
          </mxGeometry>
        </mxCell>
        <mxCell id="aq7eUv8yj4ew99GdYOny-5" value="Request" style="edgeLabel;html=1;align=center;verticalAlign=middle;resizable=0;points=[];" parent="aq7eUv8yj4ew99GdYOny-4" vertex="1" connectable="0">
          <mxGeometry x="0.0286" y="-3" relative="1" as="geometry">
            <mxPoint as="offset" />
          </mxGeometry>
        </mxCell>
        <mxCell id="aq7eUv8yj4ew99GdYOny-6" value="Reverse Proxy" style="rounded=1;whiteSpace=wrap;html=1;" parent="1" vertex="1">
          <mxGeometry x="240" y="370" width="120" height="60" as="geometry" />
        </mxCell>
        <mxCell id="aq7eUv8yj4ew99GdYOny-7" value="" style="endArrow=classic;html=1;rounded=0;startArrow=classic;startFill=1;" parent="1" edge="1">
          <mxGeometry width="50" height="50" relative="1" as="geometry">
            <mxPoint x="300" y="360" as="sourcePoint" />
            <mxPoint x="390" y="300" as="targetPoint" />
            <Array as="points" />
          </mxGeometry>
        </mxCell>
        <mxCell id="aq7eUv8yj4ew99GdYOny-13" value="Backend&lt;div&gt;Service&lt;/div&gt;" style="rounded=1;whiteSpace=wrap;html=1;" parent="1" vertex="1">
          <mxGeometry x="420" y="370" width="90" height="60" as="geometry" />
        </mxCell>
        <mxCell id="aq7eUv8yj4ew99GdYOny-14" value="Database" style="shape=cylinder3;whiteSpace=wrap;html=1;boundedLbl=1;backgroundOutline=1;size=15;" parent="1" vertex="1">
          <mxGeometry x="570" y="360" width="80" height="80" as="geometry" />
        </mxCell>
        <mxCell id="aq7eUv8yj4ew99GdYOny-16" value="" style="endArrow=classic;html=1;rounded=0;startArrow=classic;startFill=1;" parent="1" edge="1">
          <mxGeometry width="50" height="50" relative="1" as="geometry">
            <mxPoint x="370" y="400" as="sourcePoint" />
            <mxPoint x="410" y="400" as="targetPoint" />
          </mxGeometry>
        </mxCell>
        <mxCell id="aq7eUv8yj4ew99GdYOny-17" value="" style="endArrow=classic;startArrow=classic;html=1;rounded=0;" parent="1" edge="1">
          <mxGeometry width="50" height="50" relative="1" as="geometry">
            <mxPoint x="520" y="399.57" as="sourcePoint" />
            <mxPoint x="560" y="399.57" as="targetPoint" />
          </mxGeometry>
        </mxCell>
        <mxCell id="aq7eUv8yj4ew99GdYOny-24" value="Frontend&lt;div&gt;Application&lt;/div&gt;" style="shape=hexagon;perimeter=hexagonPerimeter2;whiteSpace=wrap;html=1;fixedSize=1;" parent="1" vertex="1">
          <mxGeometry x="405" y="270" width="120" height="60" as="geometry" />
        </mxCell>
        <mxCell id="aq7eUv8yj4ew99GdYOny-26" value="Authentication&lt;div&gt;Server&lt;/div&gt;" style="shape=parallelogram;perimeter=parallelogramPerimeter;whiteSpace=wrap;html=1;fixedSize=1;" parent="1" vertex="1">
          <mxGeometry x="405" y="470" width="120" height="60" as="geometry" />
        </mxCell>
        <mxCell id="aq7eUv8yj4ew99GdYOny-28" value="" style="endArrow=classic;html=1;rounded=0;startArrow=classic;startFill=1;" parent="1" edge="1">
          <mxGeometry width="50" height="50" relative="1" as="geometry">
            <mxPoint x="300" y="440" as="sourcePoint" />
            <mxPoint x="390" y="500" as="targetPoint" />
            <Array as="points" />
          </mxGeometry>
        </mxCell>
        <mxCell id="aq7eUv8yj4ew99GdYOny-29" value="" style="endArrow=classic;startArrow=classic;html=1;rounded=0;" parent="1" edge="1">
          <mxGeometry width="50" height="50" relative="1" as="geometry">
            <mxPoint x="540" y="500" as="sourcePoint" />
            <mxPoint x="590" y="450" as="targetPoint" />
          </mxGeometry>
        </mxCell>
        <mxCell id="aq7eUv8yj4ew99GdYOny-30" value="" style="swimlane;startSize=0;fillColor=#a20025;fontColor=#ffffff;strokeColor=#ffffff;" parent="1" vertex="1">
          <mxGeometry y="200" width="760" height="400" as="geometry" />
        </mxCell>
        <mxCell id="VISF4ppJoYT0EjCsWILw-1" value="" style="endArrow=classic;startArrow=classic;html=1;rounded=0;entryX=0.544;entryY=0.688;entryDx=0;entryDy=0;entryPerimeter=0;" edge="1" parent="aq7eUv8yj4ew99GdYOny-30" target="aq7eUv8yj4ew99GdYOny-23">
          <mxGeometry width="50" height="50" relative="1" as="geometry">
            <mxPoint x="470.28" y="240" as="sourcePoint" />
            <mxPoint x="419.72444444444454" y="310" as="targetPoint" />
          </mxGeometry>
        </mxCell>
      </root>
    </mxGraphModel>
  </diagram>
</mxfile>
